<svg id="Layer_1" data-name="Layer 1" xmlns="http://www.w3.org/2000/svg" viewBox="0 0 1553.18 2263.48"><defs><style>.cls-1{fill:#323232;}.cls-2{fill:#cabfe2;}</style></defs><path class="cls-1" d="M1418.76,244.33H805.83a94.17,94.17,0,0,1,0,91.6c-16.62,29.41-48.08,46.47-80.94,43.92,1.15,8,7.9,60.85-27,101.64-33,38.53-89.54,50.44-140.3,28.23-.11,2.85-1.76,34.16-27,50.82-20.93,13.82-49.27,11.74-70.15-5.65v663.95c0,79.26,61.4,143.5,137.14,143.5h821.14c75.74,0,137.14-64.24,137.14-143.5v-831C1555.9,308.58,1494.5,244.33,1418.76,244.33Z" transform="translate(-205.98 -58)"/><path class="cls-1" d="M387.11,481.49H320.79a4.92,4.92,0,0,0-3.86,8l22.21,28.06a4.94,4.94,0,0,0,6.51,1.1l44.1-28.07A4.92,4.92,0,0,0,387.11,481.49Z" transform="translate(-205.98 -58)"/><path class="cls-1" d="M381.43,396.79a12.22,12.22,0,0,0-16.59,0l-.35-11.29-11.3,22.58c1.08,1.53,5.78,7.79,14.12,9.11,2.39.38,9.67,1.52,14.12-3.46C385.12,409.58,386.44,401.66,381.43,396.79Z" transform="translate(-205.98 -58)"/><path class="cls-1" d="M723.43,188.22l21.21-72.09a21.3,21.3,0,0,0-6.29-21.93l-34.84-31A20.69,20.69,0,0,0,689.76,58H676.32a9.67,9.67,0,0,0-8.94,13.36l48.48,117.26A4,4,0,0,0,723.43,188.22Z" transform="translate(-205.98 -58)"/><path class="cls-1" d="M804.26,142.7h-7.17a9.45,9.45,0,0,0-9.44,9.45v11.72a5.64,5.64,0,0,1-2.88,4.92L771,176.58h35.19a4.34,4.34,0,0,0,4.34-4.34V149A6.3,6.3,0,0,0,804.26,142.7Z" transform="translate(-205.98 -58)"/><polygon class="cls-2" points="666.7 423.49 666.7 463.91 847.38 463.01 847.38 644.37 889.11 644.37 889.11 423.49 666.7 423.49"/><polygon class="cls-2" points="977.25 717.11 977.25 757.53 1157.94 756.63 1157.94 937.99 1199.67 937.99 1199.67 717.11 977.25 717.11"/><polygon class="cls-2" points="661.05 717.11 661.05 757.53 841.74 756.63 841.74 937.99 883.47 937.99 883.47 717.11 661.05 717.11"/><polygon class="cls-2" points="344.85 717.11 344.85 757.53 525.53 756.63 525.53 937.99 567.26 937.99 567.26 717.11 344.85 717.11"/><polygon class="cls-2" points="344.85 1016.37 344.85 1056.8 525.53 1055.9 525.53 1237.25 567.26 1237.25 567.26 1016.37 344.85 1016.37"/><polygon class="cls-2" points="661.05 1010.73 661.05 1051.15 841.74 1050.25 841.74 1231.61 883.47 1231.61 883.47 1010.73 661.05 1010.73"/><polygon class="cls-2" points="977.25 1010.73 977.25 1051.15 1157.94 1050.25 1157.94 1231.61 1199.67 1231.61 1199.67 1010.73 977.25 1010.73"/><polygon class="cls-2" points="977.25 423.49 977.25 463.91 1157.94 463.01 1157.94 644.37 1199.67 644.37 1199.67 423.49 977.25 423.49"/><path class="cls-1" d="M426.78,1589q2.6-7,7.26-9.85t13.48-2.85q9.59,0,13.47,4.66t3.89,19.18q0,25.41.52,47.3t.52,19q0,12.18-4.15,16.45T447,1687.23q-17.1,0-22.29-24.36-1.81-7.24-2.85-11.14-4.94-19.44-23.58-31.75t-43.8-12.31q-45.87,0-73.61,33.53t-27.73,90q0,56.44,28.13,90t74.24,33.52a114.72,114.72,0,0,0,30.59-4.28,133,133,0,0,0,30.58-12.82,175.81,175.81,0,0,0,19.18-12.31q12.17-8.68,17.36-8.68a19,19,0,0,1,13.61,5.31A17.38,17.38,0,0,1,472.4,1835q0,7.77-6.09,14.91t-22.68,17.57a171.75,171.75,0,0,1-43.8,21.13,157.17,157.17,0,0,1-46.39,6.77q-64,0-105.74-45.22T206,1734.4q0-69.7,42.24-115.85t106.26-46.13a153.11,153.11,0,0,1,34.85,4.15A234.65,234.65,0,0,1,426.78,1589Z" transform="translate(-205.98 -58)"/><path class="cls-1" d="M601.46,1851.28h17.37q15.28,0,21.51,4.15t6.22,13.74q0,10.62-5.45,14.64t-23.84,4H548.85q-9.58,0-14.38-4.67t-4.8-14q0-10.11,5.57-14t21.13-3.89H561v-233.5h-4.14q-15.55,0-21.38-4.15t-5.84-14.51q0-9.58,4.8-14.13t14.9-4.53h65.31q20.73,0,26.3,4t5.58,14.65q0,10.37-7,14.51t-26.43,4.15H601.46V1708H725.6v-90.19H708q-14.78,0-21.12-4.41t-6.35-14.25q0-10.62,5.83-14.65t28.64-4h63.23q9.33,0,14.13,4.66t4.79,14q0,10.1-5.44,14.38t-19.44,4.28H766v233.5h4.15q15.55,0,21.25,4t5.7,13.87q0,10.62-5.44,14.64t-25.14,4H712.9q-21,0-26.69-4t-5.7-14.64q0-10.11,6.74-14t25.65-3.89h12.7V1743.47H601.46Z" transform="translate(-205.98 -58)"/><path class="cls-1" d="M1122.13,1733.88q0,71-39.4,116.49t-100.81,45.49q-60.92,0-100.43-45.61T842,1733.88q0-71.52,39.13-116.75t100.82-45.23q61.43,0,100.81,45.62T1122.13,1733.88ZM981.92,1859.32q43.53,0,68.55-33.37t25-92.07q0-58.7-25-92.06t-68.55-33.37q-43.8,0-68.55,33.11t-24.75,92.32q0,58.69,25,92.07T981.92,1859.32Z" transform="translate(-205.98 -58)"/><path class="cls-1" d="M1382.33,1589q2.6-7,7.26-9.85c3.11-1.9,7.59-2.85,13.47-2.85q9.59,0,13.48,4.66t3.89,19.18q0,25.41.52,47.3t.51,19q0,12.18-4.14,16.45t-14.78,4.28q-17.1,0-22.28-24.36-1.83-7.24-2.85-11.14-4.94-19.44-23.59-31.75t-43.8-12.31q-45.87,0-73.6,33.53t-27.73,90q0,56.44,28.12,90t74.25,33.52a114.65,114.65,0,0,0,30.58-4.28,132.65,132.65,0,0,0,30.58-12.82,173.9,173.9,0,0,0,19.18-12.31q12.18-8.68,17.36-8.68a19,19,0,0,1,13.61,5.31,17.38,17.38,0,0,1,5.57,13.09q0,7.77-6.09,14.91t-22.67,17.57a172.07,172.07,0,0,1-43.8,21.13,157.22,157.22,0,0,1-46.39,6.77q-64,0-105.74-45.22t-41.73-115.72q0-69.7,42.24-115.85T1310,1572.42a153.19,153.19,0,0,1,34.86,4.15A235.31,235.31,0,0,1,1382.33,1589Z" transform="translate(-205.98 -58)"/><path class="cls-1" d="M1759.16,1733.88q0,71-39.4,116.49T1619,1895.86q-60.92,0-100.43-45.61T1479,1733.88q0-71.52,39.13-116.75T1619,1571.9q61.42,0,100.81,45.62T1759.16,1733.88ZM1619,1859.32q43.53,0,68.55-33.37t25-92.07q0-58.7-25-92.06T1619,1608.45q-43.82,0-68.55,33.11t-24.75,92.32q0,58.69,25,92.07T1619,1859.32Z" transform="translate(-205.98 -58)"/><path class="cls-1" d="M660.29,2321.48H544.18q-9.07,0-13.61-4.67t-4.53-14q0-10.37,5.7-14.13t27.21-3.75h8.56V2051.43H559q-20,0-25.65-4t-5.71-14.64q0-9.07,4.67-13.87t13.48-4.79h121q54.93,0,83.71,21.38t28.76,62.07q0,20.47-8.81,35.76t-26.17,25.14q28,10.11,41.6,28.25t13.6,46.13a82,82,0,0,1-11.66,43q-11.67,19.44-32.92,31.88a95.94,95.94,0,0,1-28.25,10.5q-15.54,3.24-44,3.24ZM608.2,2146.8h54.16q36.79,0,54.56-11.66t17.75-36q0-23.06-16.07-35.38t-46.13-12.3H608.2Zm0,138.14h57.53q48.72,0,68.68-12.32t20-40.81q0-28.77-19.05-40.95t-67-12.18H608.2Z" transform="translate(-205.98 -58)"/><path class="cls-1" d="M941.74,2051.43H903.9q-15.81,0-22.16-4.28t-6.34-14.38q0-10.62,5.57-14.65t30.45-4h73.86q14.25,0,19.31,3.76t9.2,13.86l101.33,253.21h4.41q14,0,19.18,3.88t5.18,14q0,10.62-4.92,14.64t-18.4,4h-70.5q-19.69,0-25.27-4t-5.57-14.64q0-9.84,6.09-13.86t22.94-4h24.1l-25.14-61.69H915.57l-22.29,61.69h25.14q17.1,0,23.32,4t6.22,13.86q0,10.62-5.57,14.64t-24.49,4H849.74q-16.59,0-22-4t-5.44-14.64q0-10.11,5.44-14t21-3.88h4.93Zm-13.22,137.35h106L978.8,2051.43Z" transform="translate(-205.98 -58)"/><path class="cls-1" d="M1242.63,2284.94h17.63q15,0,21.25,4.14t6.22,13.74q0,10.36-5.44,14.51t-20.48,4.15h-87.08q-8.82,0-13.47-4.8t-4.67-13.86q0-9.59,5.18-13.74t17.11-4.14h23.58V2049.09h-15q-19.44,0-25.14-3.62t-5.7-13.74q0-8.81,4.54-13.22t13.6-4.4H1284.1q39.64,0,59.22,3.76t33,12.82a82.23,82.23,0,0,1,27.35,30.84,88.16,88.16,0,0,1,10,41.21q0,29.81-18.27,51.18t-50.92,29.68a61.06,61.06,0,0,1,12,9.07,81.38,81.38,0,0,1,10.23,12.44l52.1,79.83h8.55q14.5,0,19.95,4t5.45,13.86q0,9.07-4.54,13.86t-13.35,4.8h-29.28q-12.7,0-24.88-18.66a24.88,24.88,0,0,1-2.33-2.59l-49.76-75.42q-15.3-23.05-25.27-29.81t-26.31-6.73h-34.47Zm0-235.85V2153.8h53.65q36.29,0,54.56-13.09t18.27-39q0-26.16-17.89-39.39t-53.38-13.22Z" transform="translate(-205.98 -58)"/></svg>